PathFileType  4	(X/Y/Z) C:\Users\HPL 1\Documents/Temp/Sub278498/Files_W_HJCs/
DataRate	CameraRate	NumFrames	NumMarkers	Units	OrigDataRate	OrigDataStartFrame	OrigNumFrames
50.0	50.0	6	42	mm	50.0	57	227
Frame#	Time  	r_knee			r_shank(antsup)			r_ankle			r_calc			r_5meta			r_toe			L_knee			L_shank(ant_sup)			L_ankle			L_calc			L_5meta			L_toe			r_mknee			r_mankle			L_mknee			L_mankle			r_sh2			r_sh3			r_sh4			L_sh2			L_sh3			r_thigh1			r_thigh2			r_thigh3			r_thigh4			r_thigh5			L_thigh1			L_thigh2			L_thigh3			L_thigh4			r.ASIS			r.PSIS			L.ASIS			L.PSIS			C7			R_Shoulder			L_Shoulder			Sternum			R_HJC			L_HJC			R_HJC_reg			L_HJC_reg			
		X1	Y1	Z1	X2	Y2	Z2	X3	Y3	Z3	X4	Y4	Z4	X5	Y5	Z5	X6	Y6	Z6	X7	Y7	Z7	X8	Y8	Z8	X9	Y9	Z9	X10	Y10	Z10	X11	Y11	Z11	X12	Y12	Z12	X13	Y13	Z13	X14	Y14	Z14	X15	Y15	Z15	X16	Y16	Z16	X17	Y17	Z17	X18	Y18	Z18	X19	Y19	Z19	X20	Y20	Z20	X21	Y21	Z21	X22	Y22	Z22	X23	Y23	Z23	X24	Y24	Z24	X25	Y25	Z25	X26	Y26	Z26	X27	Y27	Z27	X28	Y28	Z28	X29	Y29	Z29	X30	Y30	Z30	X31	Y31	Z31	X32	Y32	Z32	X33	Y33	Z33	X34	Y34	Z34	X35	Y35	Z35	X36	Y36	Z36	X37	Y37	Z37	X38	Y38	Z38	X39	Y39	Z39	X40	Y40	Z40	X41	Y41	Z41	X42	Y42	Z42	

57	1.12000	773.54980	578.81323	-409.21063	787.82227	491.85736	-404.38876	735.05750	114.25561	-409.01395	646.45294	71.21314	-452.10464	847.12708	39.40205	-382.28989	886.07556	73.61777	-445.12759	767.44446	573.40509	-732.43848	792.28589	456.01111	-733.68640	705.35370	113.34535	-732.18274	629.73242	73.40131	-681.38702	821.01569	42.46559	-777.85974	868.09637	71.02910	-721.43903	771.04138	558.03418	-535.18567	746.98822	120.77869	-505.20871	785.28125	562.79303	-610.14972	736.77759	120.66396	-642.35461	784.44733	371.69363	-401.23721	712.86859	491.62308	-392.32968	702.43634	375.71597	-385.77716	704.66687	476.04010	-752.40057	692.42627	354.11304	-753.77997	842.05035	898.77716	-392.84390	841.08081	783.78662	-396.10162	795.42535	750.64349	-383.47119	729.00458	892.79480	-381.49017	734.20966	775.81268	-393.49094	855.53046	839.99286	-752.44629	857.03699	701.88190	-743.41144	740.20667	838.65509	-771.51099	744.85449	704.32526	-752.26849	865.07227	1095.13293	-447.06461	676.02020	1126.60779	-539.54120	874.23065	1096.32959	-705.26825	684.21588	1125.42358	-622.22333	722.92932	1608.74146	-589.82831	765.75177	1582.82202	-424.57056	788.70410	1574.40454	-766.01447	863.77740	1535.36475	-582.30505	796.57546	1006.30689	-459.14609	803.70978	1007.60187	-695.39942	791.13780	1018.93040	-489.82419	807.95641	1016.50025	-659.49875
58	1.14000	773.47937	578.80981	-409.22894	787.75342	491.82211	-404.45972	735.04749	114.23855	-409.02631	646.45258	71.21619	-452.10663	847.13269	39.39767	-382.31052	886.08240	73.62076	-445.12341	767.39166	573.36963	-732.46655	792.27814	455.97253	-733.70978	705.30859	113.32983	-732.19788	629.71167	73.40870	-681.38348	820.96350	42.44190	-777.86511	868.08331	71.03696	-721.44653	770.93878	558.00598	-535.25250	746.96179	120.74552	-505.23474	785.12048	562.73676	-610.16956	736.82983	120.66881	-642.38544	784.43304	371.67874	-401.31146	712.81500	491.61490	-392.37433	702.44885	375.71625	-385.77408	704.63306	476.01706	-752.43164	692.37341	354.09967	-753.81903	842.00879	898.69061	-392.97015	840.91217	783.81299	-396.12506	795.34546	750.65167	-383.50845	729.00769	892.84863	-381.46729	734.19232	775.82166	-393.53671	855.52551	839.95972	-752.46149	856.98767	701.80548	-743.39606	740.23822	838.60120	-771.52740	744.82117	704.34790	-752.39240	865.04437	1095.11023	-447.04974	676.04712	1126.61499	-539.55255	874.19000	1096.31763	-705.28644	684.19250	1125.44373	-622.26276	722.94684	1608.70044	-589.71826	765.66699	1582.85181	-424.56439	788.64899	1574.44336	-765.92145	863.67157	1535.27271	-582.27881	796.53818	1006.29616	-459.16359	803.67561	1007.59939	-695.41679	791.14997	1018.90005	-489.77832	807.86288	1016.49683	-659.48536
59	1.16000	773.45752	578.79559	-409.23856	787.73077	491.82950	-404.47195	735.04858	114.24567	-409.02167	646.46173	71.26141	-452.08377	847.11938	39.40049	-382.31787	886.10840	73.63721	-445.12018	767.38763	573.38373	-732.45410	792.27313	455.97391	-733.70721	705.29028	113.36283	-732.16132	629.69983	73.42254	-681.36237	820.98944	42.49542	-777.88019	868.06842	71.03925	-721.44128	770.95636	558.03265	-535.25714	746.95490	120.78147	-505.25906	785.17358	562.78815	-610.15973	736.80713	120.66991	-642.33441	784.38446	371.67639	-401.28149	712.77301	491.58759	-392.41071	702.43512	375.68811	-385.82474	704.62305	476.03925	-752.47437	692.38770	354.09818	-753.76984	841.99274	898.68146	-393.02853	840.81201	783.73956	-396.18393	795.34991	750.61133	-383.54465	728.94928	892.78516	-381.55380	734.17731	775.76758	-393.58688	855.46680	839.95203	-752.49841	856.97284	701.83643	-743.41962	740.25354	838.65985	-771.60297	744.73541	704.32452	-752.39545	864.97351	1095.10522	-447.08466	675.99750	1126.68457	-539.57123	874.19391	1096.33691	-705.30994	684.20074	1125.51013	-622.24780	722.99792	1608.75757	-589.67523	765.68005	1582.87036	-424.46915	788.57574	1574.50879	-765.84088	863.60901	1535.19885	-582.19861	796.46467	1006.31115	-459.19049	803.62774	1007.64296	-695.44275	791.02750	1018.93777	-489.86753	807.86419	1016.52730	-659.55650
60	1.18000	773.48059	578.80579	-409.25748	787.73065	491.84311	-404.47830	735.06006	114.26935	-409.00110	646.43933	71.35024	-452.02588	847.13391	39.40219	-382.30472	886.09418	73.63370	-445.08081	767.41553	573.43225	-732.49707	792.28748	455.99805	-733.70758	705.28375	113.38456	-732.17120	629.72296	73.42987	-681.29602	820.99640	42.54590	-777.84277	868.08630	71.10101	-721.39691	770.95215	558.01501	-535.26050	747.01062	120.78879	-505.24557	785.13019	562.75183	-610.16602	736.74982	120.71270	-642.32550	784.37134	371.69763	-401.30777	712.78998	491.57721	-392.41153	702.43860	375.69073	-385.79105	704.66254	476.03625	-752.46997	692.40417	354.13245	-753.82971	841.94629	898.70795	-393.04575	840.78772	783.77142	-396.15689	795.30615	750.63531	-383.51480	728.93091	892.82141	-381.55765	734.14819	775.78998	-393.54272	855.52185	839.95966	-752.47253	857.02557	701.88440	-743.41937	740.29590	838.66412	-771.61987	744.79584	704.35162	-752.38660	864.92834	1095.09607	-447.11108	675.93549	1126.73010	-539.61493	874.22668	1096.33936	-705.27338	684.11932	1125.66040	-622.34711	723.02795	1608.81445	-589.60333	765.69751	1582.86035	-424.36441	788.47583	1574.53357	-765.72699	863.55048	1535.08667	-582.16742	796.33821	1006.32876	-459.23388	803.58094	1007.69658	-695.48351	791.05603	1018.82391	-489.95614	807.83846	1016.63030	-659.61357
61	1.20000	773.50037	578.81854	-409.30447	787.73761	491.81122	-404.50781	735.05225	114.24281	-409.01532	646.44794	71.33563	-452.01840	847.11560	39.40566	-382.31335	886.08075	73.64256	-445.09854	767.41821	573.39880	-732.47607	792.26569	455.98019	-733.75018	705.28955	113.38541	-732.15759	629.70215	73.44699	-681.34625	821.00110	42.50935	-777.81805	868.09973	71.08826	-721.38098	770.94714	557.99121	-535.28540	746.98016	120.73491	-505.20660	785.21106	562.80652	-610.15338	736.82965	120.77781	-642.28760	784.40289	371.70145	-401.32886	712.78394	491.63074	-392.40875	702.43060	375.68982	-385.78879	704.65924	476.06265	-752.55365	692.37061	354.09445	-753.84406	841.96924	898.73279	-393.03055	841.05566	783.82458	-396.18542	795.23682	750.66748	-383.55905	728.83936	892.82446	-381.58444	734.10706	775.83118	-393.52557	855.52075	839.97772	-752.51764	857.01251	701.84119	-743.48016	740.22729	838.58392	-771.59442	744.84607	704.26996	-752.32007	864.92590	1095.11316	-447.07660	675.89233	1126.73901	-539.64844	874.19965	1096.35767	-705.26483	684.12500	1125.55713	-622.33563	723.08490	1608.81787	-589.52136	765.76648	1582.79895	-424.27652	788.43341	1574.53906	-765.64398	863.52655	1534.98193	-582.18866	796.34877	1006.33911	-459.21158	803.60495	1007.67365	-695.46097	790.94672	1018.98659	-489.87596	807.83875	1016.56158	-659.53596
62	1.22000	773.49023	578.82214	-409.31601	787.74786	491.87222	-404.48932	735.05756	114.24315	-409.03500	646.45190	71.23419	-452.05685	847.10291	39.38055	-382.31180	886.06464	73.61633	-445.09070	767.43048	573.37738	-732.50806	792.32074	455.97684	-733.73639	705.28705	113.33815	-732.16754	629.68982	73.41543	-681.35498	821.01984	42.48446	-777.85944	868.06030	71.03882	-721.43311	771.07690	558.06213	-535.30481	746.98315	120.73661	-505.21991	785.17053	562.73578	-610.18817	736.72772	120.71475	-642.28308	784.39404	371.69922	-401.35187	712.80975	491.60660	-392.42432	702.42749	375.69077	-385.81995	704.70905	476.01651	-752.52747	692.46472	354.09036	-753.76532	841.86194	898.75934	-392.96750	840.86334	783.84515	-396.17429	795.21240	750.65228	-383.59363	728.80170	892.81915	-381.63000	734.06726	775.83496	-393.64404	855.50952	839.97357	-752.54413	857.08380	701.85858	-743.44550	740.26288	838.63788	-771.64526	744.78949	704.28754	-752.39185	864.91034	1095.07947	-447.06992	675.86792	1126.70105	-539.74249	874.18915	1096.34814	-705.26971	684.11047	1125.52625	-622.42157	723.17780	1608.81213	-589.44336	765.90509	1582.72644	-424.17120	788.42145	1574.55835	-765.58209	863.50201	1534.88220	-582.15021	796.30998	1006.30641	-459.25616	803.62637	1007.65400	-695.50363	790.92611	1018.94911	-489.88721	807.84066	1016.53830	-659.55304
